<mxfile host="app.diagrams.net" modified="2024-05-16T11:43:35.297Z" agent="Mozilla/5.0 (Windows NT 10.0; Win64; x64) AppleWebKit/537.36 (KHTML, like Gecko) Chrome/105.0.0.0 Safari/537.36" etag="wyIh_A7HqWnkdbN1y5r_" version="24.4.2" type="github">
  <diagram name="第 1 页" id="C2YbFjEd_0uXuYYxi3Yx">
    <mxGraphModel dx="1050" dy="549" grid="1" gridSize="10" guides="1" tooltips="1" connect="1" arrows="1" fold="1" page="1" pageScale="1" pageWidth="827" pageHeight="1169" math="0" shadow="0">
      <root>
        <mxCell id="0" />
        <mxCell id="1" parent="0" />
        <mxCell id="97UFiQagDKIA_LGp1nj_-1" value="角色信息库匹配" style="rounded=1;whiteSpace=wrap;html=1;fontSize=12;glass=0;strokeWidth=1;shadow=0;" vertex="1" parent="1">
          <mxGeometry x="190" y="81" width="120" height="40" as="geometry" />
        </mxCell>
        <mxCell id="97UFiQagDKIA_LGp1nj_-2" value="情节信息库" style="rounded=1;whiteSpace=wrap;html=1;fontSize=12;glass=0;strokeWidth=1;shadow=0;" vertex="1" parent="1">
          <mxGeometry x="430" y="81" width="120" height="40" as="geometry" />
        </mxCell>
        <mxCell id="97UFiQagDKIA_LGp1nj_-3" value="该角色参与的情节内容列表" style="rounded=1;whiteSpace=wrap;html=1;fontSize=12;glass=0;strokeWidth=1;shadow=0;" vertex="1" parent="1">
          <mxGeometry x="310" y="142" width="120" height="40" as="geometry" />
        </mxCell>
        <mxCell id="97UFiQagDKIA_LGp1nj_-4" value="输入角色" style="rounded=1;whiteSpace=wrap;html=1;fontSize=12;glass=0;strokeWidth=1;shadow=0;" vertex="1" parent="1">
          <mxGeometry x="330" y="50" width="80" height="40" as="geometry" />
        </mxCell>
        <mxCell id="97UFiQagDKIA_LGp1nj_-5" value="" style="shape=flexArrow;endArrow=classic;html=1;rounded=0;exitX=0.5;exitY=1;exitDx=0;exitDy=0;" edge="1" parent="1">
          <mxGeometry width="50" height="50" relative="1" as="geometry">
            <mxPoint x="369.5" y="188" as="sourcePoint" />
            <mxPoint x="369.5" y="236" as="targetPoint" />
          </mxGeometry>
        </mxCell>
        <mxCell id="97UFiQagDKIA_LGp1nj_-6" value="" style="endArrow=classic;html=1;rounded=0;exitX=0.5;exitY=1;exitDx=0;exitDy=0;entryX=0.5;entryY=0;entryDx=0;entryDy=0;" edge="1" parent="1" source="97UFiQagDKIA_LGp1nj_-4" target="97UFiQagDKIA_LGp1nj_-3">
          <mxGeometry width="50" height="50" relative="1" as="geometry">
            <mxPoint x="500" y="320" as="sourcePoint" />
            <mxPoint x="550" y="270" as="targetPoint" />
          </mxGeometry>
        </mxCell>
        <mxCell id="97UFiQagDKIA_LGp1nj_-7" value="" style="endArrow=none;html=1;rounded=0;exitX=1;exitY=0.5;exitDx=0;exitDy=0;entryX=0;entryY=0.5;entryDx=0;entryDy=0;" edge="1" parent="1" source="97UFiQagDKIA_LGp1nj_-1" target="97UFiQagDKIA_LGp1nj_-2">
          <mxGeometry width="50" height="50" relative="1" as="geometry">
            <mxPoint x="500" y="320" as="sourcePoint" />
            <mxPoint x="550" y="270" as="targetPoint" />
          </mxGeometry>
        </mxCell>
        <mxCell id="97UFiQagDKIA_LGp1nj_-8" value="" style="endArrow=none;dashed=1;html=1;dashPattern=1 3;strokeWidth=2;rounded=0;" edge="1" parent="1">
          <mxGeometry width="50" height="50" relative="1" as="geometry">
            <mxPoint x="69" y="210" as="sourcePoint" />
            <mxPoint x="669" y="210" as="targetPoint" />
          </mxGeometry>
        </mxCell>
        <mxCell id="97UFiQagDKIA_LGp1nj_-9" value="" style="endArrow=none;dashed=1;html=1;dashPattern=1 3;strokeWidth=2;rounded=0;" edge="1" parent="1">
          <mxGeometry width="50" height="50" relative="1" as="geometry">
            <mxPoint x="70" y="490" as="sourcePoint" />
            <mxPoint x="670" y="490" as="targetPoint" />
          </mxGeometry>
        </mxCell>
        <mxCell id="97UFiQagDKIA_LGp1nj_-10" value="" style="endArrow=none;dashed=1;html=1;dashPattern=1 3;strokeWidth=2;rounded=0;" edge="1" parent="1">
          <mxGeometry width="50" height="50" relative="1" as="geometry">
            <mxPoint x="70" y="490" as="sourcePoint" />
            <mxPoint x="70" y="210" as="targetPoint" />
          </mxGeometry>
        </mxCell>
        <mxCell id="97UFiQagDKIA_LGp1nj_-11" value="" style="endArrow=none;dashed=1;html=1;dashPattern=1 3;strokeWidth=2;rounded=0;" edge="1" parent="1">
          <mxGeometry width="50" height="50" relative="1" as="geometry">
            <mxPoint x="662" y="490" as="sourcePoint" />
            <mxPoint x="662" y="210" as="targetPoint" />
          </mxGeometry>
        </mxCell>
        <mxCell id="97UFiQagDKIA_LGp1nj_-12" value="互动关系计算" style="rounded=1;whiteSpace=wrap;html=1;fontSize=12;glass=0;strokeWidth=1;shadow=0;" vertex="1" parent="1">
          <mxGeometry x="230" y="530" width="270" height="40" as="geometry" />
        </mxCell>
      </root>
    </mxGraphModel>
  </diagram>
</mxfile>
